<?xml version="1.0" standalone="no"?>
<!DOCTYPE svg PUBLIC "-//W3C//DTD SVG 20010904//EN"
 "http://www.w3.org/TR/2001/REC-SVG-20010904/DTD/svg10.dtd">
<svg version="1.0" xmlns="http://www.w3.org/2000/svg"
 width="474.000000pt" height="474.000000pt" viewBox="0 0 474.000000 474.000000"
 preserveAspectRatio="xMidYMid meet">

<g transform="translate(0.000000,474.000000) scale(0.100000,-0.100000)"
fill="#000000" stroke="none">
<path d="M0 3510 c0 -676 4 -1230 8 -1230 5 0 30 31 55 69 67 97 233 256 301
287 98 45 216 50 309 15 66 -26 143 -95 523 -473 369 -367 403 -398 434 -398
32 0 111 77 1195 1159 1140 1139 1161 1159 1235 1194 117 54 221 55 335 3 67
-31 227 -182 296 -280 l49 -69 0 476 0 477 -2370 0 -2370 0 0 -1230z"/>
<path d="M4703 3473 c-61 -79 -223 -244 -1502 -1524 -1309 -1308 -1327 -1326
-1405 -1365 -73 -36 -87 -39 -160 -39 -93 1 -139 14 -216 62 -84 53 -1293
1267 -1355 1360 -26 40 -52 73 -56 73 -5 0 -9 -459 -9 -1020 l0 -1020 2370 0
2370 0 0 1755 c0 965 -2 1755 -5 1755 -2 0 -17 -17 -32 -37z"/>
</g>
</svg>
