<?xml version="1.0" standalone="no"?>
<!DOCTYPE svg PUBLIC "-//W3C//DTD SVG 20010904//EN"
 "http://www.w3.org/TR/2001/REC-SVG-20010904/DTD/svg10.dtd">
<svg version="1.0" xmlns="http://www.w3.org/2000/svg"
 width="5000.000000pt" height="5000.000000pt" viewBox="0 0 5000.000000 5000.000000"
 preserveAspectRatio="xMidYMid meet">

<g transform="translate(0.000000,5000.000000) scale(0.100000,-0.100000)"
fill="#000000" stroke="none">
<path d="M0 25000 l0 -25000 25000 0 25000 0 0 25000 0 25000 -25000 0 -25000
0 0 -25000z m30010 19837 c273 -48 458 -98 665 -179 689 -271 1289 -808 1690
-1513 260 -457 430 -974 499 -1525 24 -190 36 -468 36 -862 l0 -357 2148 -4
c2372 -3 2210 1 2476 -66 286 -73 578 -218 797 -397 101 -83 266 -258 342
-364 81 -115 196 -341 237 -469 17 -52 38 -136 48 -188 l17 -93 1167 0 1168 0
0 -1845 0 -1845 -16715 0 -16715 0 0 1845 0 1845 875 0 875 0 4 23 c3 12 10
49 17 82 6 33 27 110 46 170 229 716 922 1230 1742 1294 88 7 817 11 2102 11
l1967 0 5 523 c4 557 9 636 63 932 195 1087 807 2028 1665 2558 365 225 803
381 1199 426 52 6 109 13 125 15 17 2 2579 2 5695 2 5256 -2 5672 -3 5760 -19z
m11290 -11012 l0 -445 -675 0 -675 0 -3 -12082 c-2 -9300 -6 -12104 -15
-12173 -62 -465 -166 -813 -356 -1192 -303 -606 -756 -1110 -1346 -1498 -593
-390 -1211 -611 -1965 -702 -144 -17 -606 -18 -11485 -18 -10795 0 -11342 1
-11488 18 -557 64 -1020 198 -1497 432 -667 327 -1198 787 -1590 1375 -332
498 -527 1038 -585 1619 -7 70 -10 3930 -10 12162 l0 12059 -870 0 -870 0 0
445 0 445 16715 0 16715 0 0 -445z"/>
<path d="M18585 42624 c-479 -85 -889 -467 -1059 -985 -74 -227 -86 -342 -86
-841 l0 -398 6755 0 6755 0 0 428 c0 329 -4 450 -15 527 -78 518 -380 956
-799 1160 -123 60 -243 98 -360 114 -55 8 -1718 11 -5594 10 -4715 -1 -5529
-3 -5597 -15z"/>
<path d="M15800 31974 c-19 -2 -78 -9 -130 -15 -618 -70 -1208 -398 -1578
-877 -243 -315 -379 -662 -412 -1047 -8 -94 -10 -2728 -8 -9525 l4 -9395 22
-115 c81 -420 267 -773 567 -1076 259 -261 577 -457 929 -573 272 -89 456
-119 791 -128 252 -6 444 5 627 37 1000 174 1763 930 1868 1850 8 68 10 2827
8 9555 -4 8949 -5 9465 -21 9545 -86 418 -274 773 -565 1066 -368 370 -810
590 -1372 681 -90 14 -639 27 -730 17z"/>
<path d="M24250 31970 c-361 -37 -712 -149 -998 -317 -595 -349 -979 -901
-1064 -1528 -20 -149 -20 -18901 0 -19050 114 -843 774 -1541 1679 -1775 233
-61 364 -74 718 -74 280 0 338 3 460 22 551 86 1012 321 1380 703 284 294 456
622 538 1024 l22 110 0 9520 0 9520 -28 128 c-86 401 -277 749 -567 1037 -359
356 -817 582 -1350 665 -122 20 -650 29 -790 15z"/>
<path d="M32985 31974 c-356 -36 -640 -116 -926 -260 -649 -329 -1086 -917
-1174 -1583 -22 -160 -22 -18902 0 -19063 56 -421 244 -800 559 -1126 408
-421 938 -663 1559 -713 158 -13 552 -6 682 11 432 58 854 229 1180 479 113
86 238 205 331 314 264 308 415 638 476 1037 11 69 13 1826 13 9540 l0 9455
-23 130 c-102 565 -428 1049 -927 1379 -308 204 -624 323 -1010 382 -96 15
-640 28 -740 18z"/>
</g>
</svg>
