<?xml version="1.0" standalone="no"?>
<!DOCTYPE svg PUBLIC "-//W3C//DTD SVG 20010904//EN"
 "http://www.w3.org/TR/2001/REC-SVG-20010904/DTD/svg10.dtd">
<svg version="1.0" xmlns="http://www.w3.org/2000/svg"
 width="900.000000pt" height="800.000000pt" viewBox="0 0 900.000000 800.000000"
 preserveAspectRatio="xMidYMid meet">

<g transform="translate(0.000000,800.000000) scale(0.100000,-0.100000)"
fill="#000000" stroke="none">
<path d="M0 4000 l0 -4000 4500 0 4500 0 0 4000 0 4000 -4500 0 -4500 0 0
-4000z m4585 3575 c97 -20 205 -76 268 -138 64 -62 123 -175 137 -262 13 -81
13 -3369 0 -3449 -31 -192 -192 -353 -401 -401 -69 -16 -85 -17 -155 -5 -95
16 -214 73 -273 130 -51 50 -105 131 -134 201 l-22 54 -3 1700 c-2 1182 1
1719 8 1763 35 208 185 359 401 406 83 18 91 18 174 1z m1054 -1189 c250 -101
512 -249 716 -404 168 -128 184 -142 321 -282 189 -193 251 -267 367 -436 269
-393 446 -845 518 -1324 34 -219 33 -648 -1 -868 -96 -622 -343 -1147 -763
-1627 -70 -79 -170 -179 -242 -240 -32 -27 -77 -66 -99 -86 -172 -150 -484
-339 -738 -448 -260 -111 -576 -200 -813 -227 -27 -3 -53 -8 -56 -9 -9 -6
-265 -20 -359 -20 -519 1 -1075 152 -1520 413 -311 182 -537 364 -750 602 -30
34 -66 74 -80 89 -72 81 -195 252 -277 386 -240 394 -394 854 -440 1311 -9 91
-9 518 0 619 42 448 238 992 500 1380 49 73 184 254 206 276 9 9 38 43 66 75
98 116 287 290 441 406 158 120 441 288 594 353 144 61 254 105 262 105 4 0 8
-230 8 -510 l0 -510 -46 -28 c-311 -182 -552 -408 -737 -687 -239 -362 -349
-733 -351 -1180 -1 -439 122 -846 361 -1198 95 -140 120 -170 264 -315 129
-130 137 -137 229 -205 296 -221 659 -365 1023 -408 103 -12 378 -15 477 -5
392 39 773 192 1105 444 326 248 603 657 720 1062 67 234 86 375 87 636 0 468
-160 934 -441 1284 -119 148 -164 197 -276 298 -75 67 -231 178 -377 267 l-33
20 -3 524 c-2 417 0 522 10 518 7 -3 64 -26 127 -51z"/>
</g>
</svg>
